<?xml version="1.0" encoding="UTF-8" standalone="no"?>
<!-- Created with Inkscape (http://www.inkscape.org/) -->

<svg
   xmlns:dc="http://purl.org/dc/elements/1.1/"
   xmlns:cc="http://creativecommons.org/ns#"
   xmlns:rdf="http://www.w3.org/1999/02/22-rdf-syntax-ns#"
   xmlns:svg="http://www.w3.org/2000/svg"
   xmlns="http://www.w3.org/2000/svg"
   xmlns:sodipodi="http://sodipodi.sourceforge.net/DTD/sodipodi-0.dtd"
   xmlns:inkscape="http://www.inkscape.org/namespaces/inkscape"
   width="60.132763mm"
   height="52.008156mm"
   viewBox="0 0 60.132763 52.008156"
   version="1.1"
   id="svg8"
   inkscape:version="0.92.4 (5da689c313, 2019-01-14)"
   sodipodi:docname="Fma_white2.svg">
  <defs
     id="defs2">
    <inkscape:path-effect
       effect="show_handles"
       id="path-effect5229"
       is_visible="true"
       nodes="true"
       handles="true"
       original_path="true"
       scale_nodes_and_handles="10" />
    <marker
       inkscape:stockid="Arrow1Mstart"
       orient="auto"
       refY="0"
       refX="0"
       id="marker5167"
       style="overflow:visible"
       inkscape:isstock="true">
      <path
         id="path5165"
         d="M 0,0 5,-5 -12.5,0 5,5 Z"
         style="fill:#000000;fill-opacity:1;fill-rule:evenodd;stroke:#000000;stroke-width:1.00000003pt;stroke-opacity:1"
         transform="matrix(0.4,0,0,0.4,4,0)"
         inkscape:connector-curvature="0" />
    </marker>
    <marker
       inkscape:stockid="Arrow2Lstart"
       orient="auto"
       refY="0"
       refX="0"
       id="Arrow2Lstart"
       style="overflow:visible"
       inkscape:isstock="true">
      <path
         id="path4679"
         style="fill:#000000;fill-opacity:1;fill-rule:evenodd;stroke:#000000;stroke-width:0.625;stroke-linejoin:round;stroke-opacity:1"
         d="M 8.7185878,4.0337352 -2.2072895,0.01601326 8.7185884,-4.0017078 c -1.7454984,2.3720609 -1.7354408,5.6174519 -6e-7,8.035443 z"
         transform="matrix(1.1,0,0,1.1,1.1,0)"
         inkscape:connector-curvature="0" />
    </marker>
    <marker
       inkscape:stockid="Tail"
       orient="auto"
       refY="0"
       refX="0"
       id="Tail"
       style="overflow:visible"
       inkscape:isstock="true">
      <g
         id="g4709"
         transform="scale(-1.2)"
         style="fill:#000000;fill-opacity:1;stroke:#000000;stroke-opacity:1">
        <path
           id="path4697"
           d="M -3.8048674,-3.9585227 0.54352094,0"
           style="fill:#000000;fill-opacity:1;fill-rule:evenodd;stroke:#000000;stroke-width:0.80000001;stroke-linecap:round;stroke-opacity:1"
           inkscape:connector-curvature="0" />
        <path
           id="path4699"
           d="M -1.2866832,-3.9585227 3.0617053,0"
           style="fill:#000000;fill-opacity:1;fill-rule:evenodd;stroke:#000000;stroke-width:0.80000001;stroke-linecap:round;stroke-opacity:1"
           inkscape:connector-curvature="0" />
        <path
           id="path4701"
           d="M 1.3053582,-3.9585227 5.6537466,0"
           style="fill:#000000;fill-opacity:1;fill-rule:evenodd;stroke:#000000;stroke-width:0.80000001;stroke-linecap:round;stroke-opacity:1"
           inkscape:connector-curvature="0" />
        <path
           id="path4703"
           d="M -3.8048674,4.1775838 0.54352094,0.21974226"
           style="fill:#000000;fill-opacity:1;fill-rule:evenodd;stroke:#000000;stroke-width:0.80000001;stroke-linecap:round;stroke-opacity:1"
           inkscape:connector-curvature="0" />
        <path
           id="path4705"
           d="M -1.2866832,4.1775838 3.0617053,0.21974226"
           style="fill:#000000;fill-opacity:1;fill-rule:evenodd;stroke:#000000;stroke-width:0.80000001;stroke-linecap:round;stroke-opacity:1"
           inkscape:connector-curvature="0" />
        <path
           id="path4707"
           d="M 1.3053582,4.1775838 5.6537466,0.21974226"
           style="fill:#000000;fill-opacity:1;fill-rule:evenodd;stroke:#000000;stroke-width:0.80000001;stroke-linecap:round;stroke-opacity:1"
           inkscape:connector-curvature="0" />
      </g>
    </marker>
    <marker
       inkscape:stockid="Arrow1Mstart"
       orient="auto"
       refY="0"
       refX="0"
       id="Arrow1Mstart"
       style="overflow:visible"
       inkscape:isstock="true">
      <path
         id="path4667"
         d="M 0,0 5,-5 -12.5,0 5,5 Z"
         style="fill:#000000;fill-opacity:1;fill-rule:evenodd;stroke:#000000;stroke-width:1.00000003pt;stroke-opacity:1"
         transform="matrix(0.4,0,0,0.4,4,0)"
         inkscape:connector-curvature="0" />
    </marker>
    <marker
       inkscape:stockid="Arrow1Lstart"
       orient="auto"
       refY="0"
       refX="0"
       id="Arrow1Lstart"
       style="overflow:visible"
       inkscape:isstock="true">
      <path
         id="path4661"
         d="M 0,0 5,-5 -12.5,0 5,5 Z"
         style="fill:#000000;fill-opacity:1;fill-rule:evenodd;stroke:#000000;stroke-width:1.00000003pt;stroke-opacity:1"
         transform="matrix(0.8,0,0,0.8,10,0)"
         inkscape:connector-curvature="0" />
    </marker>
    <inkscape:path-effect
       effect="simplify"
       id="path-effect3776"
       is_visible="true"
       steps="1"
       threshold="0.002"
       smooth_angles="0"
       helper_size="5"
       simplify_individual_paths="false"
       simplify_just_coalesce="false" />
    <inkscape:path-effect
       effect="vonkoch"
       id="path-effect3774"
       is_visible="true"
       ref_path="M 202.20117,596.69292 H 427.47461"
       generator="m 202.20117,700.07812 h 75.09115 m 75.09114,0 h 75.09115"
       similar_only="false"
       nbgenerations="1"
       drawall="true"
       maxComplexity="1000" />
    <inkscape:path-effect
       effect="taper_stroke"
       id="path-effect3772"
       is_visible="true"
       stroke_width="0.99999994"
       attach_start="0.2"
       end_offset="0.2"
       smoothing="0.5"
       jointype="extrapolated"
       miter_limit="100" />
    <inkscape:path-effect
       effect="sketch"
       id="path-effect3768"
       is_visible="true"
       nbiter_approxstrokes="2"
       strokelength="175"
       strokelength_rdm="0;1"
       strokeoverlap="0.7"
       strokeoverlap_rdm="0.1;1"
       ends_tolerance="0.1;1"
       parallel_offset="1.6;1"
       tremble_size="2.9;1"
       tremble_frequency="0.5"
       nbtangents="0"
       tgt_places_rdmness="1;1"
       tgtscale="10"
       tgtlength="100"
       tgtlength_rdm="0.4;1" />
    <inkscape:path-effect
       effect="skeletal"
       id="path-effect3766"
       is_visible="true"
       pattern="M 0,0 H 1"
       copytype="single_stretched"
       prop_scale="1.01"
       scale_y_rel="false"
       spacing="0"
       normal_offset="0"
       tang_offset="0"
       prop_units="false"
       vertical_pattern="false"
       fuse_tolerance="0" />
    <inkscape:path-effect
       effect="knot"
       id="path-effect3764"
       is_visible="true"
       interruption_width="3"
       prop_to_stroke_width="true"
       add_stroke_width="true"
       add_other_stroke_width="true"
       switcher_size="15"
       crossing_points_vector="" />
    <inkscape:path-effect
       effect="interpolate"
       id="path-effect3762"
       is_visible="true"
       trajectory="M 0,0 V 0"
       equidistant_spacing="true"
       steps="5" />
    <inkscape:path-effect
       effect="rough_hatches"
       id="path-effect3760"
       is_visible="true"
       direction="314.83789,591.69292 , 56.31836,0"
       dist_rdm="75;1"
       growth="0"
       do_bend="true"
       bender="314.83789,596.69292 , 5,0"
       bottom_edge_variation="20.67704;1"
       top_edge_variation="20.67704;1"
       bottom_tgt_variation="0;1"
       top_tgt_variation="0;1"
       scale_bf="1"
       scale_bb="1"
       scale_tf="1"
       scale_tb="1"
       top_smth_variation="0;1"
       bottom_smth_variation="0;1"
       fat_output="true"
       stroke_width_top="1"
       stroke_width_bottom="1"
       front_thickness="1"
       back_thickness="0.25" />
    <inkscape:path-effect
       effect="gears"
       id="path-effect3758"
       is_visible="true"
       teeth="10"
       phi="5"
       min_radius="5" />
    <inkscape:path-effect
       effect="gears"
       id="path-effect3756"
       is_visible="true"
       teeth="10"
       phi="5"
       min_radius="5" />
    <inkscape:path-effect
       effect="clone_original"
       id="path-effect3754"
       is_visible="true"
       linkedpath="" />
    <inkscape:path-effect
       effect="powerstroke"
       id="path-effect3752"
       is_visible="true"
       offset_points="4,0.49999997"
       sort_points="true"
       interpolator_type="CubicBezierFit"
       interpolator_beta="0.2"
       start_linecap_type="butt"
       linejoin_type="extrp_arc"
       miter_limit="4"
       end_linecap_type="butt" />
    <inkscape:path-effect
       effect="roughen"
       id="path-effect47"
       is_visible="true"
       method="segments"
       max_segment_size="10"
       segments="2"
       displace_x="10;1"
       displace_y="10;1"
       global_randomize="1;1"
       handles="along"
       shift_nodes="true"
       fixed_displacement="false"
       spray_tool_friendly="false" />
  </defs>
  <sodipodi:namedview
     id="base"
     pagecolor="#ffffff"
     bordercolor="#666666"
     borderopacity="1.0"
     inkscape:pageopacity="0.0"
     inkscape:pageshadow="2"
     inkscape:zoom="2.0434836"
     inkscape:cx="20.44147"
     inkscape:cy="77.016946"
     inkscape:document-units="mm"
     inkscape:current-layer="layer1"
     showgrid="false"
     inkscape:window-width="1920"
     inkscape:window-height="1017"
     inkscape:window-x="-8"
     inkscape:window-y="-8"
     inkscape:window-maximized="1" />
  <metadata
     id="metadata5">
    <rdf:RDF>
      <cc:Work
         rdf:about="">
        <dc:format>image/svg+xml</dc:format>
        <dc:type
           rdf:resource="http://purl.org/dc/dcmitype/StillImage" />
        <dc:title></dc:title>
      </cc:Work>
    </rdf:RDF>
  </metadata>
  <g
     inkscape:label="Layer 1"
     inkscape:groupmode="layer"
     id="layer1"
     transform="translate(-53.234476,-130.25642)">
    <path
       style="fill:none;fill-rule:nonzero;stroke:#ffffff;stroke-width:1.99937011;stroke-linecap:square;stroke-linejoin:round;stroke-miterlimit:4;stroke-dasharray:none;stroke-dashoffset:0;stroke-opacity:1;paint-order:normal;opacity:1;fill-opacity:1"
       d="m 363.51119,493.30772 c -18.14854,0.0311 -37.36782,11.25516 -49.78853,24.48756 -12.25371,-11.84878 -30.13739,-22.18992 -47.18281,-22.21716 -36.36887,-1.2e-4 -64.3388,29.4827 -64.33868,65.85157 0.0223,17.64462 7.12471,34.5422 19.71485,46.90429 l 92.05468,79.54004 92.18164,-80.29004 c 13.56515,-12.451 21.29772,-30.01274 21.32227,-48.42578 1.2e-4,-36.36886 -27.59456,-65.8506 -63.96342,-65.85048 z"
       transform="scale(0.26458333)"
       id="path10"
       inkscape:connector-curvature="0"
       sodipodi:nodetypes="ccccccccc" />
    <g
       aria-label="F = m&lt;/a&gt;"
       style="font-style:normal;font-variant:normal;font-weight:normal;font-stretch:normal;font-size:10.58333302px;line-height:1.25;font-family:Gabriola;-inkscape-font-specification:Gabriola;letter-spacing:0px;word-spacing:0px;fill:none;fill-opacity:1;stroke:#ffffff;stroke-width:0.52899998;stroke-miterlimit:4;stroke-dasharray:none;stroke-opacity:1"
       id="text45">
      <path
         d="m 63.483827,147.64652 q 0,-0.14814 -0.02412,-0.24805 -0.02067,-0.10335 -0.08268,-0.16881 -0.05857,-0.0654 -0.165365,-0.093 -0.106798,-0.031 -0.275607,-0.031 -0.110243,0 -0.248047,0.0138 -0.137804,0.0103 -0.313504,0.031 l -0.03445,-0.3204 q 0.33762,-0.0517 0.627008,-0.0896 0.289388,-0.0413 0.54088,-0.0689 0.254937,-0.031 0.475423,-0.0448 0.220486,-0.0138 0.416856,-0.0138 0.564996,0 1.06109,-0.007 0.496093,-0.0103 0.878499,-0.0172 0.382406,-0.0103 0.627007,-0.0172 0.244602,-0.0103 0.303169,-0.0103 0.158474,0 0.241156,0.0758 0.08613,0.0723 0.08613,0.22737 0,0.062 -0.01378,0.24116 -0.01033,0.17915 -0.031,0.41341 -0.01723,0.23082 -0.04134,0.48921 -0.02412,0.25838 -0.05168,0.48231 l -0.330729,-0.0103 q 0.0069,-0.13091 0.01033,-0.2446 0.0034,-0.11369 0.0034,-0.21359 0,-0.28939 -0.03445,-0.46854 -0.03445,-0.18259 -0.127468,-0.28594 -0.08957,-0.10335 -0.248047,-0.14125 -0.158475,-0.0379 -0.403076,-0.0413 -0.179145,-0.003 -0.334175,-0.003 -0.151584,-0.003 -0.296278,-0.003 h -0.706244 q -0.06201,0 -0.127469,0 -0.06201,0 -0.130913,0.003 -0.0689,0 -0.151585,0.003 -0.08268,0 -0.18259,0.003 -0.01378,0.58223 -0.03445,1.4056 -0.02067,0.81994 -0.04823,1.83279 0.447862,0.0207 0.799262,0.031 0.354845,0.007 0.647678,0.007 0.35829,0 0.633898,-0.0207 0.279052,-0.0241 0.527099,-0.0724 0.05512,0.15159 0.05512,0.27217 0,0.0999 -0.06201,0.16881 -0.06201,0.0689 -0.179145,0.11024 -0.113688,0.0413 -0.279053,0.062 -0.161919,0.0172 -0.36518,0.0172 -0.361735,0 -0.819932,-0.0379 -0.454753,-0.0413 -0.971517,-0.0999 -0.01378,0.42375 -0.03101,0.88195 -0.01378,0.45819 -0.02756,0.93017 -0.01378,0.47198 -0.03101,0.95429 -0.01378,0.48232 -0.02756,0.95774 l -0.816487,0.10335 -0.06201,-0.007 q 0.04134,-0.98874 0.07235,-1.87413 0.03445,-0.88539 0.05512,-1.72255 0.02412,-0.83716 0.03445,-1.65709 0.01378,-0.82338 0.01378,-1.68465 z"
         style="font-style:normal;font-variant:normal;font-weight:normal;font-stretch:normal;font-size:14.11111069px;font-family:Gabriola;-inkscape-font-specification:Gabriola;fill:none;fill-opacity:1;stroke:#ffffff;stroke-width:0.52899998;stroke-miterlimit:4;stroke-dasharray:none;stroke-opacity:1"
         id="path891" />
      <path
         d="m 75.142029,150.92281 q 0.03101,0.0792 0.04134,0.15503 0.01378,0.0723 0.01378,0.13091 0,0.0999 -0.0379,0.15847 -0.0379,0.0586 -0.120578,0.093 -0.07924,0.0344 -0.210151,0.0448 -0.127469,0.0103 -0.310059,0.0103 -0.36518,0 -0.74414,-0.007 -0.378961,-0.007 -0.764812,-0.0172 -0.38585,-0.0103 -0.768256,-0.0172 -0.382405,-0.0103 -0.757921,-0.0103 -0.227376,0 -0.447862,0.0241 -0.220486,0.0207 -0.440973,0.0827 0,-0.21015 0.07235,-0.33417 0.07579,-0.12402 0.210151,-0.18948 0.134359,-0.0655 0.323839,-0.0861 0.192926,-0.0207 0.427192,-0.0207 0.282498,0 0.606337,0.007 0.327284,0.003 0.682129,0.0103 0.354845,0.003 0.73036,0.007 0.37896,0.003 0.768256,0.003 0.196371,0 0.382406,-0.007 0.18948,-0.0103 0.344509,-0.0379 z m -0.02411,1.58129 q 0.03101,0.0792 0.04134,0.15503 0.01378,0.0724 0.01378,0.13092 0,0.0999 -0.0379,0.15847 -0.0379,0.0586 -0.120578,0.093 -0.07924,0.0344 -0.210151,0.0448 -0.127468,0.0103 -0.310059,0.0103 -0.36518,0 -0.74414,-0.007 -0.378961,-0.007 -0.764811,-0.0172 -0.385851,-0.0103 -0.768257,-0.0172 -0.382405,-0.0103 -0.757921,-0.0103 -0.227376,0 -0.447862,0.0241 -0.220486,0.0207 -0.440972,0.0827 0,-0.21015 0.07235,-0.33417 0.07579,-0.12403 0.210151,-0.18948 0.134358,-0.0655 0.323839,-0.0861 0.192925,-0.0207 0.427191,-0.0207 0.282498,0 0.606337,0.007 0.327284,0.003 0.682129,0.0103 0.354845,0.003 0.73036,0.007 0.378961,0.003 0.768257,0.003 0.19637,0 0.382405,-0.007 0.18948,-0.0103 0.34451,-0.0379 z"
         style="font-style:normal;font-variant:normal;font-weight:normal;font-stretch:normal;font-size:14.11111069px;font-family:Gabriola;-inkscape-font-specification:Gabriola;fill:none;fill-opacity:1;stroke:#ffffff;stroke-width:0.52899998;stroke-miterlimit:4;stroke-dasharray:none;stroke-opacity:1"
         id="path893" />
      <path
         d="m 78.032465,149.90995 q 0.244602,-0.0861 0.468533,-0.15503 0.227376,-0.0724 0.416856,-0.12402 0.189481,-0.0517 0.334175,-0.0792 0.144694,-0.0276 0.227376,-0.0276 0.199815,0 0.310058,0.12058 0.113689,0.11713 0.113689,0.40652 0,0.0689 -0.01378,0.29627 -0.01378,0.22394 -0.04134,0.565 -0.02412,0.34107 -0.06201,0.77859 -0.0379,0.43753 -0.08613,0.93018 l 0.02067,0.003 q 0.241156,-0.87505 0.513319,-1.46761 0.272162,-0.596 0.55466,-0.96118 0.282498,-0.36518 0.568441,-0.52021 0.285943,-0.15847 0.55466,-0.15847 0.237712,0 0.403076,0.11713 0.165365,0.11713 0.268718,0.30661 0.103353,0.18948 0.151584,0.43064 0.04823,0.23771 0.04823,0.48576 0,0.21704 -0.01378,0.46164 -0.01378,0.24116 -0.03445,0.47887 -0.02067,0.23427 -0.04479,0.44786 -0.02067,0.21015 -0.0379,0.36863 l 0.02067,0.003 q 0.241157,-0.88883 0.513319,-1.48828 0.275608,-0.60289 0.558106,-0.96807 0.285943,-0.36518 0.571886,-0.52021 0.285943,-0.15847 0.55466,-0.15847 0.172255,0 0.334174,0.0723 0.16192,0.0724 0.285943,0.23427 0.127469,0.15847 0.203261,0.40997 0.07579,0.25149 0.07579,0.60633 0,0.0999 -0.01378,0.27561 -0.01034,0.17226 -0.02756,0.38585 -0.01723,0.2136 -0.04134,0.45475 -0.02067,0.23772 -0.0379,0.46854 -0.01723,0.23082 -0.03101,0.44097 -0.01033,0.2067 -0.01033,0.35829 0,0.26872 0.02067,0.43753 0.02412,0.16881 0.07579,0.26871 0.05168,0.0965 0.137804,0.13436 0.08613,0.0344 0.210151,0.0344 0.179145,0 0.37207,-0.0482 0.192925,-0.0517 0.389296,-0.14125 l 0.06546,0.17915 q -0.124024,0.0999 -0.313504,0.20326 -0.18948,0.10335 -0.399631,0.18948 -0.206706,0.0861 -0.413411,0.1378 -0.206706,0.0551 -0.365181,0.0551 -0.186035,0 -0.292833,-0.0999 -0.106798,-0.0999 -0.161919,-0.27217 -0.05168,-0.17225 -0.0689,-0.40307 -0.01378,-0.23082 -0.01378,-0.4961 0,-0.32039 0.02067,-0.67179 0.02412,-0.3514 0.05168,-0.66835 0.02756,-0.31695 0.04823,-0.57188 0.02412,-0.25839 0.02412,-0.3893 0,-0.37552 -0.134359,-0.56155 -0.130914,-0.18948 -0.35829,-0.18948 -0.1757,0 -0.375515,0.16881 -0.196371,0.16536 -0.396186,0.4582 -0.196371,0.29283 -0.382406,0.69246 -0.18259,0.39619 -0.330729,0.86127 -0.148139,0.46509 -0.251492,0.97497 -0.09991,0.50643 -0.130914,1.0163 l -0.720025,0.0896 -0.05512,-0.003 q 0.0379,-0.72347 0.0689,-1.28158 0.03445,-0.5581 0.05857,-0.97496 0.02756,-0.41686 0.04134,-0.70625 0.01723,-0.28938 0.01723,-0.47886 0,-0.38585 -0.134359,-0.58222 -0.130913,-0.19637 -0.337619,-0.19637 -0.18259,0 -0.385851,0.16536 -0.199815,0.16192 -0.396186,0.45131 -0.19637,0.28939 -0.37896,0.68557 -0.179145,0.39274 -0.327284,0.85094 -0.144694,0.4582 -0.244602,0.96463 -0.09646,0.50643 -0.127469,1.0163 l -0.720025,0.0896 -0.05512,-0.003 q 0.02756,-0.32729 0.05168,-0.71314 0.02412,-0.38585 0.04479,-0.78203 0.02067,-0.39964 0.03445,-0.78893 0.01723,-0.39274 0.02756,-0.73036 0.01378,-0.34107 0.01723,-0.60978 0.0069,-0.26872 0.0069,-0.42375 0,-0.14125 -0.02067,-0.23771 -0.02067,-0.0965 -0.06546,-0.15159 -0.04134,-0.0586 -0.106798,-0.0827 -0.06546,-0.0241 -0.15503,-0.0241 -0.124023,0 -0.296278,0.0344 -0.172255,0.0345 -0.392741,0.093 z"
         style="font-style:normal;font-variant:normal;font-weight:normal;font-stretch:normal;font-size:14.11111069px;font-family:Gabriola;-inkscape-font-specification:Gabriola;fill:none;fill-opacity:1;stroke:#ffffff;stroke-width:0.52899998;stroke-miterlimit:4;stroke-dasharray:none;stroke-opacity:1"
         id="path895" />
      <path
         d="m 87.2102,151.77719 q 0.3514,-0.14469 0.73725,-0.30661 0.389296,-0.16192 0.785482,-0.33418 0.399631,-0.1757 0.792372,-0.35484 0.396186,-0.17915 0.761366,-0.35485 0.368625,-0.17914 0.692464,-0.3514 0.323839,-0.17225 0.582221,-0.33073 0.120579,0.0689 0.179145,0.16537 0.06201,0.093 0.06201,0.17225 0,0.0586 -0.01722,0.11369 -0.01723,0.0551 -0.07579,0.11713 -0.05857,0.062 -0.172255,0.13781 -0.113688,0.0723 -0.310059,0.17225 -0.19637,0.0999 -0.489203,0.23082 -0.289388,0.12747 -0.699355,0.29973 -0.409966,0.17225 -0.954291,0.38929 -0.544325,0.21704 -1.247125,0.49265 0.678684,0.27561 1.202339,0.49265 0.527099,0.21704 0.923285,0.3893 0.399631,0.17225 0.678684,0.30316 0.279053,0.12747 0.468533,0.22738 0.18948,0.0999 0.299723,0.1757 0.110243,0.0724 0.165365,0.13436 0.05857,0.062 0.07235,0.11713 0.01723,0.0517 0.01723,0.11025 0,0.0792 -0.06201,0.1757 -0.05857,0.093 -0.179145,0.16192 -0.248047,-0.15848 -0.564996,-0.33073 -0.316949,-0.17226 -0.675239,-0.34796 -0.354845,-0.1757 -0.740695,-0.35484 -0.385851,-0.17915 -0.775147,-0.3514 -0.38585,-0.17226 -0.764811,-0.33418 -0.375515,-0.16536 -0.713135,-0.3135 z"
         style="font-style:normal;font-variant:normal;font-weight:normal;font-stretch:normal;font-size:14.11111069px;font-family:Gabriola;-inkscape-font-specification:Gabriola;fill:none;fill-opacity:1;stroke:#ffffff;stroke-width:0.52899998;stroke-miterlimit:4;stroke-dasharray:none;stroke-opacity:1"
         id="path897" />
      <path
         d="m 92.560433,155.7046 q 0.248047,-1.00941 0.478868,-1.95337 0.234267,-0.9474 0.444417,-1.79834 0.210151,-0.85094 0.396186,-1.59508 0.189481,-0.74759 0.34451,-1.36081 0.155029,-0.61323 0.275608,-1.08176 0.124023,-0.46854 0.206705,-0.76481 0.07235,-0.25839 0.151584,-0.44098 0.07924,-0.18259 0.172255,-0.29627 0.09646,-0.11369 0.210151,-0.16537 0.117133,-0.0517 0.261827,-0.0517 0.16192,0 0.396186,0.0689 l 0.01378,0.031 q -0.385851,0.84061 -0.744141,1.8638 -0.35829,1.01975 -0.71658,2.21175 -0.354845,1.192 -0.72347,2.54593 -0.368625,1.35392 -0.775146,2.85943 z"
         style="font-style:normal;font-variant:normal;font-weight:normal;font-stretch:normal;font-size:14.11111069px;font-family:Gabriola;-inkscape-font-specification:Gabriola;fill:none;fill-opacity:1;stroke:#ffffff;stroke-width:0.52899998;stroke-miterlimit:4;stroke-dasharray:none;stroke-opacity:1"
         id="path899" />
      <path
         d="m 99.378275,150.94692 q 0,-0.27216 -0.08957,-0.47198 -0.08957,-0.19981 -0.234267,-0.32728 -0.144694,-0.12747 -0.327284,-0.18948 -0.18259,-0.062 -0.36518,-0.062 -0.244602,0 -0.413412,0.0517 -0.168809,0.0517 -0.275607,0.14125 -0.103353,0.0896 -0.151584,0.2136 -0.04479,0.12058 -0.04479,0.26183 0,0.16536 0.05857,0.33417 0.06201,0.16536 0.179145,0.32384 l -0.01378,0.0379 q -0.196371,0.0965 -0.396186,0.0965 -0.117134,0 -0.220486,-0.0344 -0.09991,-0.0379 -0.1757,-0.1068 -0.07235,-0.0689 -0.117134,-0.16881 -0.04134,-0.0999 -0.04134,-0.22393 0,-0.20326 0.09646,-0.38241 0.09991,-0.17914 0.261827,-0.32728 0.16192,-0.14814 0.375516,-0.26527 0.213595,-0.11714 0.440972,-0.19637 0.227376,-0.0827 0.454752,-0.12403 0.230822,-0.0448 0.427192,-0.0448 0.361735,0 0.616672,0.0965 0.258382,0.0965 0.416857,0.2825 0.161922,0.18259 0.234262,0.44441 0.0758,0.26183 0.0758,0.59256 0,0.22738 -0.0207,0.49954 -0.0172,0.27216 -0.0414,0.57188 -0.0241,0.29628 -0.0448,0.61323 -0.0172,0.31695 -0.0172,0.63045 0,0.4961 0.18259,0.74759 0.18604,0.24805 0.48576,0.24805 0.26527,0 0.59256,-0.19637 l 0.0999,0.14814 q -0.23083,0.23082 -0.50299,0.3514 -0.27216,0.12057 -0.57188,0.12057 -0.22394,0 -0.413416,-0.0758 -0.18948,-0.0758 -0.327284,-0.22393 -0.137803,-0.15158 -0.213596,-0.37896 -0.07579,-0.22738 -0.07579,-0.5271 0,-0.0896 0.0034,-0.17914 0.0069,-0.0896 0.02412,-0.18948 h -0.02067 q -0.14814,0.29627 -0.34451,0.58566 -0.192925,0.28594 -0.427192,0.51332 -0.230821,0.22393 -0.496094,0.36174 -0.261827,0.14124 -0.551215,0.14124 -0.237711,0 -0.434082,-0.0827 -0.19637,-0.0827 -0.337619,-0.22737 -0.137804,-0.1447 -0.217041,-0.34107 -0.07579,-0.19981 -0.07579,-0.43408 0,-0.30317 0.110243,-0.55122 0.113688,-0.24804 0.310058,-0.44441 0.199816,-0.19637 0.475424,-0.33762 0.275607,-0.1447 0.599446,-0.23771 0.323839,-0.0965 0.685574,-0.14125 0.361735,-0.0482 0.737251,-0.0482 0.02411,-0.21705 0.0379,-0.42031 0.01722,-0.20326 0.01722,-0.44786 z m -2.115289,2.36678 q 0,0.13436 0.02756,0.25838 0.03101,0.12058 0.09302,0.2136 0.06546,0.093 0.161919,0.14814 0.09991,0.0517 0.237712,0.0517 0.155029,0 0.320394,-0.0724 0.165364,-0.0724 0.323839,-0.19982 0.161919,-0.12747 0.306613,-0.30317 0.148139,-0.17914 0.265273,-0.38929 0.117133,-0.21015 0.192925,-0.44097 0.07924,-0.23427 0.103353,-0.47887 -0.254937,0.007 -0.506429,0.0344 -0.251492,0.0241 -0.478869,0.0792 -0.223931,0.0551 -0.416856,0.14469 -0.192925,0.0896 -0.334174,0.22393 -0.137804,0.13092 -0.217041,0.31351 -0.07924,0.17914 -0.07924,0.41685 z"
         style="font-style:normal;font-variant:normal;font-weight:normal;font-stretch:normal;font-size:14.11111069px;font-family:Gabriola;-inkscape-font-specification:Gabriola;fill:none;fill-opacity:1;stroke:#ffffff;stroke-width:0.52899998;stroke-miterlimit:4;stroke-dasharray:none;stroke-opacity:1"
         id="path901" />
      <path
         d="m 106.12377,152.29395 q -0.3514,0.14814 -0.74069,0.31351 -0.38585,0.16192 -0.78204,0.33762 -0.39618,0.17225 -0.79237,0.3514 -0.39619,0.1757 -0.76137,0.35484 -0.36518,0.1757 -0.69246,0.34796 -0.32384,0.16881 -0.58222,0.32728 -0.12058,-0.0689 -0.18259,-0.16192 -0.0586,-0.0965 -0.0586,-0.1757 0,-0.0586 0.0172,-0.11369 0.0172,-0.0551 0.0758,-0.11713 0.0586,-0.062 0.17225,-0.13436 0.11369,-0.0758 0.31006,-0.1757 0.19637,-0.0999 0.48576,-0.22738 0.29283,-0.13091 0.7028,-0.30316 0.40997,-0.17226 0.95429,-0.3893 0.54433,-0.21704 1.24713,-0.49265 -0.67869,-0.27561 -1.20579,-0.49265 -0.52365,-0.21704 -0.92328,-0.38929 -0.39619,-0.17226 -0.67524,-0.29973 -0.27905,-0.13091 -0.46853,-0.23082 -0.18949,-0.0999 -0.29973,-0.17225 -0.11024,-0.0758 -0.16881,-0.13781 -0.0551,-0.062 -0.0723,-0.11368 -0.0138,-0.0551 -0.0138,-0.11369 0,-0.0792 0.0586,-0.17226 0.062,-0.0965 0.18259,-0.16536 0.24805,0.15847 0.56155,0.33073 0.31695,0.17225 0.6718,0.3514 0.35829,0.1757 0.74414,0.35484 0.38585,0.17915 0.7717,0.35485 0.38929,0.17225 0.76481,0.33417 0.37896,0.16192 0.72002,0.30661 z"
         style="font-style:normal;font-variant:normal;font-weight:normal;font-stretch:normal;font-size:14.11111069px;font-family:Gabriola;-inkscape-font-specification:Gabriola;fill:none;fill-opacity:1;stroke:#ffffff;stroke-width:0.52899998;stroke-miterlimit:4;stroke-dasharray:none;stroke-opacity:1"
         id="path903" />
    </g>
  </g>
</svg>
